<svg xmlns="http://www.w3.org/2000/svg" width="534.741" height="528.743" version="1.1" style=""><rect id="backgroundrect" width="100%" height="100%" x="0" y="0" fill="none" stroke="none"/>
  
<g class="currentLayer" style=""><title>Layer 1</title><path d="M23.391704334259032,18.283648937225337 L23.391704334259032,193.28364893722534 L250.89170433425903,193.28364893722534 L250.89170433425903,18.283648937225337 L23.391704334259032,18.283648937225337 zM285.89170433425903,18.283648937225337 L285.89170433425903,298.28364893722534 L513.391704334259,298.28364893722534 L513.391704334259,18.283648937225337 L285.89170433425903,18.283648937225337 zM58.39170433425903,53.28364893722534 L215.89170433425903,53.28364893722534 L215.89170433425903,158.28364893722534 L58.39170433425903,158.28364893722534 L58.39170433425903,53.28364893722534 zM320.89170433425903,53.28364893722534 L478.39170433425903,53.28364893722534 L478.39170433425903,263.28364893722534 L320.89170433425903,263.28364893722534 L320.89170433425903,53.28364893722534 zM23.391704334259032,228.28364893722534 L23.391704334259032,508.28364893722534 L250.89170433425903,508.28364893722534 L250.89170433425903,228.28364893722534 L23.391704334259032,228.28364893722534 zM58.39170433425903,263.28364893722534 L215.89170433425903,263.28364893722534 L215.89170433425903,473.28364893722534 L58.39170433425903,473.28364893722534 L58.39170433425903,263.28364893722534 zM285.89170433425903,333.28364893722534 L285.89170433425903,508.28364893722534 L513.391704334259,508.28364893722534 L513.391704334259,333.28364893722534 L285.89170433425903,333.28364893722534 zM320.89170433425903,368.28364893722534 L478.39170433425903,368.28364893722534 L478.39170433425903,473.28364893722534 L320.89170433425903,473.28364893722534 L320.89170433425903,368.28364893722534 z" id="svg_1" class="selected" fill-opacity="1" fill="#dfdce3"/></g></svg>